HIERARCHY
ROOT Hips
{
	OFFSET -0.001795 -0.223333 0.028219
	CHANNELS 6 Xposition Yposition Zposition Zrotation Yrotation Xrotation 
	JOINT LeftUpLeg
	{
		OFFSET 0.069520 -0.091406 -0.006815
		CHANNELS 3 Zrotation Yrotation Xrotation
		JOINT LeftLeg
		{
			OFFSET 0.034277 -0.375199 -0.004496
			CHANNELS 3 Zrotation Yrotation Xrotation
			JOINT LeftFoot
			{
				OFFSET -0.013596 -0.397961 -0.043693
				CHANNELS 3 Zrotation Yrotation Xrotation
				JOINT LeftToe
				{
					OFFSET 0.026358 -0.055791 0.119288
					CHANNELS 3 Zrotation Yrotation Xrotation
					End Site
					{
						OFFSET 0.000000 0.000000 0.000000
					}
				}
			}
		}
	}
	JOINT RightUpLeg
	{
		OFFSET -0.067670 -0.090522 -0.004320
		CHANNELS 3 Zrotation Yrotation Xrotation
		JOINT RightLeg
		{
			OFFSET -0.038290 -0.382569 -0.008850
			CHANNELS 3 Zrotation Yrotation Xrotation
			JOINT RightFoot
			{
				OFFSET 0.015774 -0.398415 -0.042312
				CHANNELS 3 Zrotation Yrotation Xrotation
				JOINT RightToe
				{
					OFFSET -0.025372 -0.048144 0.123348
					CHANNELS 3 Zrotation Yrotation Xrotation
					End Site
					{
						OFFSET 0.000000 0.000000 0.000000
					}
				}
			}
		}
	}
	JOINT Spine
	{
		OFFSET -0.002533 0.108963 -0.026696
		CHANNELS 3 Zrotation Yrotation Xrotation
		JOINT Spine1
		{
			OFFSET 0.005487 0.135180 0.001092
			CHANNELS 3 Zrotation Yrotation Xrotation
			JOINT Spine2
			{
				OFFSET 0.001457 0.052922 0.025425
				CHANNELS 3 Zrotation Yrotation Xrotation
				JOINT Neck
				{
					OFFSET -0.002778 0.213870 -0.042857
					CHANNELS 3 Zrotation Yrotation Xrotation
					JOINT Head
					{
						OFFSET 0.005152 0.064970 0.051349
						CHANNELS 3 Zrotation Yrotation Xrotation
						End Site
						{
							OFFSET 0.000000 0.000000 0.000000
						}
					}
				}
				JOINT LeftShoulder
				{
					OFFSET 0.078845 0.121749 -0.034090
					CHANNELS 3 Zrotation Yrotation Xrotation
					JOINT LeftArm
					{
						OFFSET 0.090977 0.030469 -0.008868
						CHANNELS 3 Zrotation Yrotation Xrotation
						JOINT LeftForeArm
						{
							OFFSET 0.259612 -0.012772 -0.027456
							CHANNELS 3 Zrotation Yrotation Xrotation
							JOINT LeftHand
							{
								OFFSET 0.249234 0.008986 -0.001171
								CHANNELS 3 Zrotation Yrotation Xrotation
								End Site
								{
									OFFSET 0.000000 0.000000 0.000000
								}
							}
						}
					}
				}
				JOINT RightShoulder
				{
					OFFSET -0.081759 0.118833 -0.038615
					CHANNELS 3 Zrotation Yrotation Xrotation
					JOINT RightArm
					{
						OFFSET -0.096012 0.032551 -0.009143
						CHANNELS 3 Zrotation Yrotation Xrotation
						JOINT RightForeArm
						{
							OFFSET -0.253742 -0.013329 -0.021401
							CHANNELS 3 Zrotation Yrotation Xrotation
							JOINT RightHand
							{
								OFFSET -0.255298 0.007772 -0.005559
								CHANNELS 3 Zrotation Yrotation Xrotation
								End Site
								{
									OFFSET 0.000000 0.000000 0.000000
								}
							}
						}
					}
				}
			}
		}
	}
}
MOTION
Frames: 10
Frame Time: 0.050000
0.000000 0.926218 0.000000 0.021189 1.026309 2.333130 6.995398 -0.857283 -22.591970 -11.356950 3.543902 34.731954 8.797024 18.106094 0.191593 0.000000 0.000000 0.000000 0.609217 0.621870 -6.041687 4.912510 -0.628400 16.048977 -6.939361 -16.875972 -4.975848 0.000000 0.000000 0.000000 -1.894757 -0.211435 9.590119 5.033720 -0.599041 -23.766669 1.842892 0.277362 28.355284 -1.654352 2.862762 -32.379692 0.000000 0.000000 0.000000 -23.084693 -3.210044 0.362679 -53.501673 -8.359409 -5.238942 -80.170520 -71.134638 68.945802 0.000000 0.000000 0.000000 10.563425 11.776062 5.032127 59.110843 14.421329 -1.168695 31.958095 73.145191 30.037697 0.000000 0.000000 0.000000 
0.001037 0.925143 0.011819 -0.065871 2.312550 3.052450 7.418478 -0.972116 -25.541700 -11.496319 3.491615 36.142610 8.516915 17.520550 -0.718318 0.000000 0.000000 0.000000 0.939567 0.540817 -5.188502 4.554407 -0.581136 14.519177 -7.284376 -18.025414 -4.653425 0.000000 0.000000 0.000000 -2.493194 -0.132320 8.534596 6.956433 -1.171016 -22.195025 1.189296 -0.544906 26.991192 -2.925765 3.514628 -34.251534 0.000000 0.000000 0.000000 -23.512818 -2.045541 -0.400530 -52.558727 -9.893382 -4.381087 -90.325969 -70.966263 78.367544 0.000000 0.000000 0.000000 8.357791 13.467141 5.551007 59.417596 15.161500 -0.542957 41.067029 75.830927 38.844232 0.000000 0.000000 0.000000 
0.003461 0.925231 0.025067 0.301600 1.537258 2.187753 7.299049 -0.955225 -26.164178 -10.712013 3.041881 32.367388 9.332874 19.205091 1.383563 0.000000 0.000000 0.000000 -0.725066 0.436019 -4.431161 5.756043 -0.879200 16.700271 -6.387642 -15.440903 -4.947958 0.000000 0.000000 0.000000 -2.016225 -0.207931 9.783783 6.358344 -0.945301 -23.389938 1.700320 0.181306 28.670651 -2.639948 3.416052 -33.586483 0.000000 0.000000 0.000000 -22.478905 -2.888089 0.139492 -53.211539 -10.494252 -4.288950 -98.580081 -73.029621 88.944831 0.000000 0.000000 0.000000 9.231641 13.956367 5.893044 56.470245 17.388919 0.222172 33.647925 75.947847 32.852497 0.000000 0.000000 0.000000 
0.007529 0.924780 0.040170 0.338178 1.261241 1.914526 6.829635 -1.065326 -27.057004 -8.903919 2.193714 28.958626 7.859203 16.552727 3.042102 0.000000 0.000000 0.000000 -0.914035 0.352673 -3.558451 5.633916 -0.842342 17.274571 -6.716184 -16.381832 -3.927870 0.000000 0.000000 0.000000 -2.186036 -0.198184 10.130172 7.429913 -1.354238 -21.872931 0.937096 0.397282 27.366058 -2.713379 3.473419 -34.628919 0.000000 0.000000 0.000000 -21.893416 -2.189802 -0.293365 -53.914303 -11.968459 -3.507816 -98.411168 -74.163117 89.835200 0.000000 0.000000 0.000000 8.034764 15.496863 6.378458 55.817757 20.059556 1.694356 26.778530 76.033410 27.046203 0.000000 0.000000 0.000000 
0.013379 0.923324 0.057177 0.510373 0.462597 1.766966 6.230827 -1.120063 -26.642774 -7.123786 1.433915 22.926737 6.708557 14.381277 3.041568 0.000000 0.000000 0.000000 -1.146824 0.257521 -2.515970 5.140909 -0.674754 17.855733 -7.014469 -17.074102 -3.821447 0.000000 0.000000 0.000000 -2.274215 -0.193220 10.623872 7.667776 -1.567225 -20.455609 1.008330 0.780943 26.702215 -1.920898 3.113654 -35.998147 0.000000 0.000000 0.000000 -21.278208 -2.899862 0.159427 -54.236282 -13.759654 -2.621045 -104.041813 -76.273997 97.923965 0.000000 0.000000 0.000000 7.832282 16.831879 6.880939 54.149496 23.455422 3.242376 14.706527 75.593996 17.058501 0.000000 0.000000 0.000000 
0.021179 0.920366 0.076560 0.166701 0.392854 1.769997 6.237281 -1.090405 -26.093242 -5.118212 0.723572 15.767126 5.452494 12.021736 3.114349 0.000000 0.000000 0.000000 -1.163931 0.135503 -1.155545 4.749747 -0.563738 17.173511 -6.886431 -16.623811 -5.056389 0.000000 0.000000 0.000000 -2.217065 -0.210981 11.094418 6.957598 -1.392274 -20.242199 2.191188 1.163726 26.611261 -1.863528 3.133381 -35.977830 0.000000 0.000000 0.000000 -20.836734 -5.038963 1.289385 -54.452908 -16.157064 -1.479201 -108.859664 -79.474981 106.109438 0.000000 0.000000 0.000000 7.823022 18.262075 7.512438 52.544692 26.056412 4.301381 -0.681516 75.268439 5.087089 0.000000 0.000000 0.000000 
0.031248 0.916335 0.098283 -0.182138 -0.105948 1.680030 6.164827 -1.035786 -25.212276 -3.613260 0.374269 10.491512 4.496585 10.303392 3.678383 0.000000 0.000000 0.000000 -1.250418 -0.014776 0.550979 4.089896 -0.368086 17.025541 -6.921239 -16.612728 -5.326270 0.000000 0.000000 0.000000 -1.898505 -0.276163 12.447054 6.879301 -1.311288 -21.019573 2.414484 2.414968 27.330574 -0.542800 2.666941 -35.785592 0.000000 0.000000 0.000000 -18.902617 -6.639607 2.011971 -54.534457 -19.786509 0.151100 -121.590731 -82.383845 122.216722 0.000000 0.000000 0.000000 7.855938 18.813658 7.876062 49.655814 30.098441 5.611384 -11.555436 72.888359 -2.888930 0.000000 0.000000 0.000000 
0.043934 0.912543 0.122366 -0.403235 -0.422839 2.297584 5.804097 -1.119424 -25.849020 -3.278694 0.314265 10.166250 3.705749 9.238299 5.529096 0.000000 0.000000 0.000000 -1.990580 -0.038385 1.177795 3.862625 -0.293510 17.335531 -6.879967 -16.324960 -6.496256 0.000000 0.000000 0.000000 -1.703880 -0.290470 12.290702 5.997760 -1.139134 -20.205652 3.257762 3.182078 27.070558 -0.175893 2.574344 -35.574291 0.000000 0.000000 0.000000 -17.694514 -8.090070 2.661071 -54.011727 -25.436174 2.819602 -146.667325 -87.008745 151.907562 0.000000 0.000000 0.000000 6.953065 19.792652 8.194154 46.753155 34.468721 6.980044 -24.386060 68.803239 -11.391446 0.000000 0.000000 0.000000 
0.059234 0.910178 0.148069 -0.657665 -1.389370 2.966540 5.629407 -1.145047 -27.244689 -3.836033 0.460093 13.240025 4.078849 10.462986 8.512332 0.000000 0.000000 0.000000 -2.319033 0.007039 0.879928 2.995780 0.022415 19.819844 -6.832803 -15.912846 -7.279517 0.000000 0.000000 0.000000 -2.067038 -0.225938 12.096925 6.389154 -1.237287 -20.445989 3.687043 4.102909 27.602452 0.487803 2.325517 -35.743871 0.000000 0.000000 0.000000 -15.953195 -9.430064 3.316377 -52.852989 -30.440505 4.964655 120.609564 -85.301691 -109.675240 0.000000 0.000000 0.000000 6.650612 21.075936 8.712091 42.248067 38.857909 7.593566 -32.774242 63.487505 -15.554183 0.000000 0.000000 0.000000 
0.076741 0.910816 0.174148 -0.366130 -1.163331 2.836535 4.858802 -1.382280 -28.257597 -4.462621 0.633995 16.946615 4.518900 11.346596 9.127475 0.000000 0.000000 0.000000 -3.562290 0.031107 1.243374 2.416890 0.231345 22.258470 -6.678732 -15.849798 -4.933072 0.000000 0.000000 0.000000 -2.654562 -0.160231 12.458537 6.251419 -1.304284 -19.156057 4.089698 3.527106 27.084551 -0.546427 2.767161 -36.715642 0.000000 0.000000 0.000000 -13.921427 -11.321475 4.316054 -51.200092 -36.685431 7.673367 89.056770 -78.155725 -70.706240 0.000000 0.000000 0.000000 4.375788 22.281071 8.666918 38.347946 43.087842 8.108570 -40.303685 57.568554 -18.202745 0.000000 0.000000 0.000000 
